<svg xmlns="http://www.w3.org/2000/svg" viewBox="0 0 1024 1024" fill="none" stroke="currentColor">
  <path fill="currentColor" stroke="currentColor" d="M424.622 416.406L405.224 460.865C404.457 462.995 404.881 463.303 405.456 465.498L406.813 471.522C411.252 496.881 397.704 522.871 375.062 534.842C371.443 536.756 367.508 537.825 363.916 539.668C360.701 541.318 358.263 543.762 354.805 545.156C333.375 553.797 309.138 554.142 287.611 545.603C283.541 543.989 277.002 538.401 276.509 538.256C248.11 529.882 228.313 503.258 233.86 472.885L235.222 466.467C236.83 459.647 225.839 439.723 222.847 432.91L203.972 389.041C194.033 363.138 185.314 333.78 182.117 306.007C146.753 315.219 105.291 304.816 78.9945 279.439C58.2094 259.381 70.1347 248.369 91.462 237.669C120.477 223.111 137.048 220.286 168.029 220.332L167.866 220.15C166.611 218.978 166.023 217.485 165.076 216.056C147.219 189.136 142.299 149.126 159.257 120.818C163.884 113.095 172.458 103.243 181.535 100.98C193.435 100.997 191.885 107.355 191.596 117.165C191.41 123.464 191.194 130.245 192.03 136.481C195.193 160.068 212.653 179.713 235.023 187.343C237.041 186.205 238.965 184.109 240.727 182.576C257.084 168.339 267.797 167.834 287.854 167.816L349.54 167.814C367.284 167.826 379.962 166.68 394.786 178.431L405.501 187.08C412.623 185.74 419.875 180.642 425.429 176.211C444.247 161.198 450.054 140.584 449.366 117.638C449.244 113.569 447.637 108.974 450.174 105.34C454.248 99.5017 461.349 100.35 466.531 104.265C499.944 129.506 496.877 189.596 473.025 220.093L472.77 220.41C502.886 219 531.237 226.366 557.059 241.962C561.702 244.767 566.634 247.362 569.397 252.236C579.311 269.722 555.096 286.34 542.39 293.59C516.901 308.135 487.132 313.552 458.547 305.794L454.603 328.8C450.23 349.352 443.684 370.114 436.062 389.697L424.622 416.406ZM172.907 132.969C171.208 136.083 170.295 139.317 169.42 142.74C160.649 177.082 174.797 207.237 202.483 227.083L208.622 219.236L218.925 205.55C219.562 204.667 221.13 202.971 221.249 201.991C197.552 189.538 180.543 172.061 175 144.688L173.675 136.684C173.519 135.569 173.524 133.92 172.907 132.969ZM467.014 133.906C464.281 167.208 446.706 187.191 418.743 202.067L432.783 220.156L436.341 224.616C437.057 225.583 437.673 226.877 438.547 227.684C457.517 213.106 469.329 196.797 472.517 172.236C474.147 159.677 473.461 145.392 467.342 134.08L467.014 133.906ZM276.768 186.025C264.478 186.666 253.68 192.232 246.952 202.976C251.704 206.061 256.959 208.239 261.799 211.195C274.832 219.154 284.394 231.577 287.553 246.631C288.514 251.208 288.86 255.902 289.862 260.469C296.899 292.539 338.349 295.293 345.226 263.06C350.022 241.395 359.677 231.73 379.85 224.949C383.066 223.868 386.817 223.035 389.71 221.227C394.017 218.535 397.479 210.471 397.194 205.238C388.458 195.698 377.838 186.622 364.335 186.096L276.768 186.025ZM232.84 217.519C227.272 224.027 222.332 231.327 217.593 238.455C193.522 274.657 196.456 295.958 207.333 338.129C211.923 355.927 217.139 373.374 224.357 390.308C232.27 408.869 241.576 427.017 248.395 446.004C259.432 437.173 273.419 434.944 287.175 436.469L299.318 438.317C310.494 439.906 322.253 440.956 333.532 439.636C352.488 437.419 376.457 430.797 392.186 445.669L417.186 387.486C424.711 369.053 430.338 350.083 435.056 330.753C446.368 284.418 442.086 259.06 411.517 222.786L411.4 223.161C403.777 246.837 371.888 237.853 365.024 259.115C363.68 263.28 363.265 267.79 362.099 272.028C350.107 315.625 284.686 315.953 272.588 267.269C268.771 251.912 270.367 240.109 255.383 228.977C248.637 223.965 240.122 223.058 232.84 217.519ZM479.085 238.886C471.853 239.166 465.16 239.804 458.031 241.114L447.119 243.396C454.931 256.074 458.732 272.296 459.513 287.09C479.781 291.293 495.63 292.516 516.016 285.727C524.809 282.46 548.467 270.316 552.901 261.604L552.979 261.286C533.38 246.658 503.771 237.3 479.085 238.886ZM151.786 239.091C134.01 240.266 101.093 248.598 87.6018 261.759C96.6038 273.854 118.161 284.718 132.264 288.019C148.75 291.571 164.264 291.404 180.724 286.855C182.1 272.297 184.859 256.089 193.602 243.928C179.421 239.726 166.37 239.014 151.786 239.091ZM272.989 454.775C238.221 460.254 246.978 516.237 288.961 523.52C296.956 524.906 305.953 524.193 314.059 524.199L334.316 524.182C345.128 524.145 356.394 524.45 365.997 518.786C376.491 512.558 384.815 504.355 387.902 492.266C391.639 477.633 387.54 459.493 371.094 455.274L370.541 455.129C359.846 452.521 341.131 457.765 329.321 458.111C320.106 458.382 310.999 458.096 301.835 457.073C292.218 455.999 282.719 454.08 272.989 454.775Z" transform="scale(1.6)"></path>
  <path fill="currentColor" stroke="currentColor" d="M241.865 346.221C207.052 348.465 203.346 301.058 236.224 296.362 266.668 292.064 275.215 340.284 241.865 346.221zM237.888 315.058C230.089 317.86 229.496 327.629 239.637 327.923 247.353 325.485 246.771 314.631 237.888 315.058zM404.55 346.229C369.718 347.63 367.057 300.881 400.208 296.359 432.022 294.439 438.246 340.419 404.55 346.229zM400.374 315.334C392.521 318.529 394.209 328.295 403.331 327.737 411.202 324.335 409.969 314.91 400.374 315.334zM352.23 510.742C347.263 511.522 342.844 509.947 340.675 505.11 338.038 499.225 343.601 491.695 346.327 486.737 350.733 478.722 355.687 467.136 364.729 463.487 369.328 462.71 373.881 464.553 376.094 468.844 378.411 473.338 374.406 477.944 372.007 481.517L361.062 499.974C358.744 504.286 356.996 508.7 352.23 510.742zM292.529 511.015C281.149 513.29 279.132 500.737 274.958 493.016 270.396 484.578 257.348 470.203 271.903 463.826 277.014 463.133 279.975 465.155 282.968 469.363 286.708 474.622 300.498 497.42 299.496 503.006L299.412 503.438C298.774 506.975 295.669 509.597 292.529 511.015z" transform="scale(1.6)"></path>
</svg>
