<svg xmlns="http://www.w3.org/2000/svg" viewBox="0 0 64 64" fill="currentColor" stroke="currentColor">
  <path fill-rule="evenodd" d="m32.211 4.6953c-2.1228 0.83132-4.3948 2.337-6.7226 4.3281-4.6555 3.9823-9.5196 9.9281-13.303 16.48-3.783 6.5524-6.5019 13.739-7.623 19.762-0.56051 3.0115-0.72818 5.7303-0.38671 7.9844 0.34147 2.2541 1.2271 4.1355 2.9004 5.1016 1.6733 0.96607 3.6528 0.63959 5.4648-0.41797 1.812-1.0576 3.6315-2.8259 5.5097-5.0664 3.11-3.71 6.3507-8.7632 9.4979-14.061 0.2581 0.43278 0.45117 0.89749 0.45117 1.1934v17c0 1.6447 1.3553 3 3 3h22c1.6447 0 3-1.3553 3-3v-17c0-0.53684 0.61308-1.6462 1.1562-2.0684 1.7559-1.3647 2.8434-3.0734 2.8437-4.9316 0-2.7826-2.2961-5.0306-5.5488-6.5625s-7.6243-2.4397-12.451-2.4375c-2.3248 0.0011-4.5403 0.21569-6.58 0.60547 1.3463-2.7095 2.5249-5.3175 3.3945-7.7031 1.0012-2.7468 1.6229-5.2047 1.6328-7.3027 0.0099-2.098-0.6978-3.9753-2.3711-4.9414-1.8049-1.065-4.059-0.67693-5.8652 0.037109zm4.8652 1.6934c0.95593 0.55191 1.3791 1.5047 1.3711 3.2012-8e-3 1.6965-0.55317 3.9973-1.5117 6.627-0.9875 2.7091-2.4395 5.7937-4.0937 9.0098-1.1864 0.34384-2.2973 0.74604-3.2929 1.2148-3.2524 1.5314-5.5488 3.7783-5.5488 6.5586 3.1e-4 1.5837 0.79479 3.0566 2.1152 4.3027-3.2171 5.4369-6.5292 10.621-9.5975 14.281-1.7981 2.1449-3.5191 3.7659-4.9843 4.6211s-2.5011 0.96598-3.457 0.41406c-0.95593-0.55192-1.6317-1.7526-1.9219-3.668-0.29016-1.9154-0.15824-4.4554 0.375-7.3203 0.52394-2.815 1.435-5.9457 2.6562-9.1562l4.4277 2.5566c1.4243 0.82235 3.2753 0.32474 4.0976-1.0996 0.82234-1.4244 0.3267-3.2753-1.0976-4.0977l-5.0292-2.9043c0.57898-1.1964 1.1994-2.3812 1.8515-3.5508l5.1777 2.9902c1.4243 0.82235 3.2753 0.3267 4.0976-1.0977s0.3267-3.2753-1.0976-4.0977l-5.0312-2.9043c0.762-1.1223 1.5514-2.2082 2.3574-3.2598l4.6738 2.6992c1.4243 0.82235 3.2753 0.3267 4.0976-1.0977 0.82234-1.4244 0.3267-3.2753-1.0976-4.0977l-3.748-2.1641c1.3128-1.411 2.6313-2.7027 3.9218-3.8066 2.2145-1.8943 4.3484-3.278 6.1523-3.9844 1.4549-0.6093 3.0957-0.80688 4.1367-0.16992z"/>
  <path fill-rule="evenodd" d="M41.99 28.004c-2.4131 0.0011-4.7146 0.23167-6.8163 0.65039a1 1 0 0 0-.78515 1.1758 1 1 0 0 0 1.1758 0.78516c1.965-0.39147 4.1394-0.61026 6.4257-0.61133 2.2861-1e-3 4.4609 0.2168 6.4277 0.60742a1 1 0 0 0 1.1758-0.78516 1 1 0 0 0-.78515-1.1758c-2.1037-0.41781-4.405-0.64759-6.8183-0.64648z"/>
</svg>