<svg xmlns="http://www.w3.org/2000/svg" viewBox="0 0 48 48" id="dessert" fill="currentColor">
  <path d="M47.5 40.6V24.7c0-.4-.2-.7-.5-.9l-.3-.3-17.5-9.7c.1-.5.2-1 .2-1.5 0-4.2-3.1-7.6-7.1-8.1V.8h-2v3.4c-2.8.4-5.3 2.2-6.4 4.9C3.7 13.9.9 23.2.7 24.3l-.1.6.1.1v22.5l46.9-.1-.1-6.8zM35.7 28l-11.6 6.5-11.7-6.4-9.8 5.4v-7.8l19.1-.1 23.8-.1v7.8L35.7 28zM21.2 6.1c3.3 0 6.1 2.7 6.1 6.2 0 .6-.1 1.2-.3 1.8-.8 2.6-3.1 4.4-5.8 4.4-3.3 0-6.1-2.7-6.1-6.2 0-.7.1-1.4.4-2.1.9-2.5 3.2-4.1 5.7-4.1zm-8 5.6v.6c0 4.5 3.6 8.2 8.1 8.1.4 0 .8 0 1.2-.1.1 0 .3-.1.4-.1.3-.1.5-.1.8-.2.2 0 .3-.1.4-.2.2-.1.5-.2.7-.3.2-.1.3-.2.4-.2.2-.1.4-.2.6-.4.1-.1.3-.2.4-.3.2-.1.4-.3.5-.5l.4-.4c.2-.2.3-.4.5-.6.1-.1.2-.3.3-.4.2-.2.3-.5.4-.7.1-.1.1-.2.2-.4l14.1 7.8-39.6.3c.9-2.5 3.6-8.3 10.2-12zM2.6 35.8l9.8-5.4 11.7 6.4 11.6-6.5 9.8 5.4v3.8l-9.8-5.4-11.6 6.5-11.7-6.4-9.8 5.4v-3.8zm0 9.6v-3.5l9.8-5.4 11.7 6.4 11.6-6.5 9.8 5.4v3.5l-42.9.1z"/>
</svg>