<svg xmlns="http://www.w3.org/2000/svg" viewBox="0 0 512 512" fill="none" stroke="currentColor">
  <path fill="currentColor" stroke="currentColor" d="M350.121 353.827C322.004 368.366 308.746 351.902 293.066 329.538C282.562 333.267 271.101 335.39 260.195 337.712L260.397 338.36C263.033 346.941 263.059 355.597 259.735 364C256.474 372.243 250.175 378.661 246.718 386.65C243.794 393.409 246.719 403.419 237.518 405.908C223.835 409.609 195.329 380.987 186.647 371.561C179.109 363.377 171.916 354.703 168.892 343.81C163.19 343.534 157.449 342.642 151.783 341.888C96.6631 334.549 55.866 311.069 16.2651 271.67C6.31425 261.77 -0.0917435 257.476 10.6551 245.712C44.9855 208.13 86.9126 174.478 137.061 161.675L147.984 159.091C159.113 156.711 157.959 157.543 166.266 150.123L177.739 140.207C195.011 125.626 225.487 105.678 249.136 104.605C258.368 104.484 264.333 104.115 272.723 108.353L286.495 116.112C309.481 129.273 330.2 144.376 347.85 164.278C361.619 179.803 365.401 187.534 356.052 205.971C357.097 207.338 360.002 208.772 361.496 209.741C371.952 216.517 382.211 223.32 391.667 231.48C396.018 223.401 401.826 216.394 408.091 209.745C429.693 186.818 456.692 173.381 488.388 170.519C497.561 169.69 509.268 170.568 504.821 183.242C503.771 186.236 502.029 188.943 500.399 191.646L494.585 201.462C475.572 234.454 467.03 263.676 491.402 296.533C495.57 302.152 500.895 307.192 504.591 313.104C511.524 324.191 503.137 330.628 491.568 329.973L481.426 328.908C451.026 324.546 421.887 311.051 402.242 286.765C398.866 282.592 396.172 278.033 393.363 273.478C385.639 281.795 368.53 293.334 359.107 299.355C365.332 299.237 372.489 297.771 376.457 304.018C379.249 308.414 378.188 314.498 376.986 319.25C373.31 333.775 362.868 346.28 350.121 353.827ZM252.379 119.856C229.801 121.664 200.493 140.8 184.273 155.391L184.663 155.29C189.318 154.114 194.803 154.699 199.609 154.707C225.648 154.751 252.81 159.743 277.502 167.675L299.689 175.868C309.045 179.728 318.308 183.867 327.199 188.717L342.247 197.826C348.02 188.117 344.389 184.498 337.588 176.618C323.415 160.196 305.654 145.661 286.941 134.591L275.957 128.277C267.658 123.39 262.333 119.387 252.379 119.856ZM184.166 170.279C174.168 170.956 164.086 172.082 154.246 173.975C147.868 175.202 141.604 176.968 135.185 177.955C145.807 193.418 155.361 213.654 156.947 232.728C168.113 228.73 179.04 224.591 191.016 223.947C216.127 222.596 221.329 238.912 211.461 258.995C199.084 284.183 173.658 296.775 146.745 298.606C145.413 298.697 145.425 300.825 145.001 301.861C141.743 309.816 136.742 316.094 131.79 323.037C135.435 323.54 139.014 324.434 142.625 325.127L153.75 326.78C168.157 328.499 182.477 328.261 196.962 328.248C207.528 328.238 216.389 328.004 226.835 326.907L247.555 324.176C258.726 322.324 269.992 319.944 280.853 316.726L300.742 309.854C327.119 300.132 351.998 287.161 374.007 269.482L381.913 262.897C393.155 252.886 397.359 248.864 405.814 263.881C420.077 289.194 442.669 303.277 469.809 310.886L485.296 314.057C445.7 267.744 459.399 233.783 484.584 187.032C453.613 190.529 424.281 209.615 407.559 235.62C397.475 251.301 395.736 253.401 379.779 241.886L335.386 211.656L316.584 200.893C288.088 186.135 257.341 176.354 225.505 172.248L207.469 170.387C199.792 169.953 191.858 170.123 184.166 170.279ZM119.381 184.125C85.5128 197.834 46.6686 226.946 23.2315 255.864C36.6185 270.616 52.8917 283.663 69.1924 294.95C82.6503 304.016 99.6632 313.368 115.534 317.683C130.319 302.049 140.385 278.317 142.62 257.25C144.981 234.992 138.081 213.521 127.052 194.387C125.059 190.929 122.853 186.959 120.094 184.061L119.381 184.125ZM191.636 239.346C180.189 240.683 169.207 245.016 158.557 249.246C158.058 250.683 158.265 252.899 158.219 254.451L157.708 262.171C156.937 269.064 155.298 275.65 153.16 282.237L161.043 280.527C176.377 275.648 190.04 266.272 197.548 251.671C199.193 248.472 203.325 240.266 197.125 239.344C195.87 239.158 192.726 238.911 191.636 239.346ZM343.146 314.839C327.98 315.408 322.105 319.104 308.028 323.961C311.954 330.685 320.578 341.015 328.101 343.606C341.686 345.649 358.397 328.618 361.67 316.354C361.826 315.771 362.063 315.424 362.423 314.951C360.897 314.552 358.549 314.84 356.927 314.84L343.146 314.839ZM234.015 341.793L185.601 344.634C186.08 345.021 189.009 349.851 189.739 350.842C196.264 359.708 204.144 367.677 212.579 374.748L230.322 389.013C231.639 384.203 232.793 379.625 235.085 375.152C239.184 367.154 246.048 360.817 246.576 351.325C247.166 340.715 241.14 341.652 234.015 341.793Z"></path>
  <path fill="currentColor" stroke="currentColor" d="M98.9469 251.244C80.0696 251.563 69.5631 231.745 80.8262 218.239C84.5112 213.82 89.2716 211.898 94.8559 211.347C120.257 209.667 126.446 246.268 98.9469 251.244ZM94.8776 226.375C88.8981 229.61 91.8538 236.589 98.3105 235.532C104.506 233.041 101.213 225.149 94.8776 226.375Z"></path>
</svg>
