<svg xmlns="http://www.w3.org/2000/svg" viewBox="0 0 64 64" id="game" fill="currentColor">
  <path d="M41.63 50.1c-3.6 0-7.18-.88-10.34-2.53-4.19-2.19-8.94-3.37-13.75-3.42h-.22c-8.8-.2-15.99-7.54-16.01-16.36C1.3 23.38 3 19.25 6.1 16.14a16.36 16.36 0 0 1 12.13-4.81c4.2.12 8.59-.99 12.68-3.23 3.52-1.93 7.52-2.86 11.58-2.72C54.38 5.83 63.83 15.5 64 27.4c.09 6.04-2.2 11.73-6.43 16.03-4.24 4.3-9.9 6.67-15.94 6.67zm-24.04-9.72c5.4.06 10.74 1.39 15.44 3.85 2.67 1.39 5.56 2.1 8.6 2.1 5.02 0 9.72-1.97 13.25-5.54 3.52-3.57 5.42-8.31 5.35-13.33-.14-9.9-8-17.94-17.88-18.31-3.36-.14-6.7.65-9.63 2.26-4.68 2.56-9.73 3.83-14.6 3.69-3.52-.1-6.87 1.21-9.35 3.7-2.39 2.4-3.7 5.58-3.69 8.97.02 6.79 5.56 12.45 12.34 12.61h.17z"></path>
  <path d="M40.32 58.63c-3.6 0-7.17-.87-10.34-2.53-4.2-2.19-8.95-3.38-13.75-3.43h-.17C7.21 52.47.02 45.13 0 36.31c-.01-2.55.56-4.99 1.67-7.26.46-.93 1.59-1.32 2.52-.86.93.46 1.32 1.59.86 2.52-.86 1.74-1.29 3.62-1.28 5.59.02 6.8 5.56 12.45 12.34 12.61h.14c5.41.06 10.75 1.39 15.47 3.86 2.63 1.37 5.6 2.1 8.6 2.1 5.02 0 9.73-1.97 13.25-5.55 3.52-3.57 5.42-8.31 5.35-13.33 0-.28-.01-.56-.03-.84-.06-1.04.74-1.93 1.78-1.98 1.06-.05 1.93.74 1.98 1.78.02.32.03.66.04.99.09 6.05-2.2 11.74-6.43 16.03-4.24 4.29-9.9 6.66-15.94 6.66z"></path>
  <path d="M16.5 36.11c-1.04 0-1.88-.84-1.88-1.88v-13c0-1.04.84-1.88 1.88-1.88s1.88.84 1.88 1.88v13c0 1.04-.84 1.88-1.88 1.88zm8.08 0c-1.04 0-1.88-.84-1.88-1.88v-13c0-1.04.84-1.88 1.88-1.88s1.88.84 1.88 1.88v13c0 1.04-.84 1.88-1.88 1.88zm8.08 0c-1.04 0-1.88-.84-1.88-1.88v-13c0-1.04.84-1.88 1.88-1.88s1.88.84 1.88 1.88v13c0 1.04-.84 1.88-1.88 1.88zm8.08 0c-1.04 0-1.88-.84-1.88-1.88v-13c0-1.04.84-1.88 1.88-1.88s1.88.84 1.88 1.88v13c0 1.04-.84 1.88-1.88 1.88zm8.08 0c-1.04 0-1.88-.84-1.88-1.88v-13c0-1.04.84-1.88 1.88-1.88s1.88.84 1.88 1.88v13c0 1.04-.84 1.88-1.88 1.88z"></path>
</svg>
