<svg xmlns="http://www.w3.org/2000/svg" viewBox="0 0 1000 1000" id="wheat" fill="currentColor">
  <path d="M285.26 336.18a16 16 0 01-11.92-5.32c-2-2.2-48.21-54.61-48.21-120.77S271.37 91.53 273.34 89.33a16 16 0 0123.84 0c2 2.2 48.2 54.61 48.2 120.76s-46.23 118.57-48.2 120.77A16 16 0 01285.26 336.18zm0-209.47c-11.81 17.89-28.16 48.9-28.16 83.38 0 34.66 16.3 65.56 28.1 83.39 11.8-17.9 28.15-48.9 28.15-83.39C313.38 175.44 297.09 144.54 285.29 126.71zM285.26 474.7c-.3 0-.59 0-.89 0-2.94-.16-72.69-4.53-119.47-51.31s-51.15-116.53-51.31-119.48A16 16 0 01130.45 287c2.94.17 72.7 4.53 119.48 51.31h0c46.78 46.78 51.14 116.53 51.3 119.48a16 16 0 01-16 16.88zM148.48 321.93c4.31 21 14.68 54.45 39 78.81s57.81 34.73 78.82 39.05c-4.31-21-14.68-54.46-39-78.82S169.49 326.24 148.48 321.93z"></path>
  <path d="M285.26 474.7a16 16 0 01-16-16.88c.17-2.95 4.53-72.7 51.31-119.48h0C367.37 291.56 437.12 287.2 440.07 287a16 16 0 0116.86 16.86c-.17 2.95-4.53 72.7-51.31 119.48s-116.53 51.15-119.48 51.31C285.85 474.7 285.55 474.7 285.26 474.7zM422.09 321.91c-21 4.31-54.49 14.67-78.87 39.06h0c-24.51 24.5-34.84 57.87-39.1 78.83 21-4.31 54.49-14.67 78.87-39.06S417.83 342.87 422.09 321.91zM331.9 349.65h0zM285.26 641.29c-.3 0-.59 0-.89 0-2.94-.16-72.69-4.52-119.47-51.3s-51.15-116.54-51.31-119.48a16 16 0 0116.86-16.86c2.94.16 72.7 4.52 119.48 51.31s51.14 116.53 51.3 119.48a16 16 0 01-16 16.88zM148.48 488.51c4.31 21 14.68 54.46 39 78.82s57.81 34.73 78.82 39c-4.31-21-14.68-54.46-39-78.82h0C202.94 503.19 169.49 492.83 148.48 488.51z"></path>
  <path d="M285.26 641.29a16 16 0 01-16-16.88c.17-2.95 4.53-72.7 51.31-119.48s116.53-51.15 119.48-51.31a16 16 0 0116.86 16.86c-.17 2.94-4.53 72.7-51.31 119.48s-116.53 51.14-119.48 51.3C285.85 641.28 285.55 641.29 285.26 641.29zM422.09 488.5c-21 4.3-54.49 14.67-78.87 39h0c-24.51 24.51-34.84 57.88-39.1 78.83 21-4.3 54.49-14.67 78.87-39S417.83 509.45 422.09 488.5zM331.9 516.24h0zM285.26 807.87c-.3 0-.59 0-.89 0-2.94-.16-72.69-4.53-119.47-51.31S113.75 640 113.59 637.06a16 16 0 0116.86-16.86c2.94.17 72.7 4.53 119.48 51.31S301.07 788 301.23 791a16 16 0 01-16 16.88zM148.48 655.1c4.31 21 14.68 54.45 39 78.81s57.81 34.73 78.82 39.05c-4.31-21-14.68-54.46-39-78.82h0C202.94 669.78 169.49 659.41 148.48 655.1z"></path>
  <path d="M285.26,807.87a16,16,0,0,1-16-16.88c.17-3,4.53-72.7,51.31-119.48h0c46.78-46.78,116.53-51.14,119.48-51.31a16,16,0,0,1,16.86,16.86c-.17,3-4.53,72.7-51.31,119.48s-116.53,51.15-119.48,51.31C285.85,807.87,285.55,807.87,285.26,807.87ZM422.09,655.08c-21,4.31-54.49,14.67-78.87,39.06h0c-24.51,24.5-34.84,57.87-39.1,78.83,21-4.31,54.49-14.67,78.87-39.06S417.83,676,422.09,655.08ZM331.9,682.82h0Z"></path>
  <path d="M285.26 916a16 16 0 01-16-16V320.18a16 16 0 0132 0V900A16 16 0 01285.26 916zM714.74 336.18a16 16 0 01-11.92-5.32c-2-2.2-48.2-54.61-48.2-120.77s46.23-118.56 48.2-120.76a16 16 0 0123.84 0c2 2.2 48.21 54.61 48.21 120.76s-46.24 118.57-48.21 120.77A16 16 0 01714.74 336.18zm0-209.47c-11.8 17.89-28.15 48.9-28.15 83.38 0 34.66 16.29 65.56 28.09 83.39 11.81-17.9 28.16-48.9 28.16-83.39C742.87 175.44 726.57 144.54 714.77 126.71zM714.74 474.7c-.29 0-.59 0-.88 0-3-.16-72.7-4.53-119.48-51.31s-51.14-116.53-51.31-119.48A16 16 0 01559.93 287c3 .17 72.7 4.53 119.48 51.31h0c46.78 46.78 51.14 116.53 51.31 119.48a16 16 0 01-16 16.88zM578 321.93c4.32 21 14.69 54.45 39 78.81s57.8 34.73 78.82 39.05c-4.32-21-14.69-54.46-39.05-78.82h0C632.42 336.61 599 326.24 578 321.93z"></path>
  <path d="M714.74 474.7a16 16 0 01-16-16.88c.16-2.95 4.52-72.7 51.3-119.48h0C796.85 291.56 866.61 287.2 869.55 287a16 16 0 0116.86 16.86c-.16 2.95-4.52 72.7-51.31 119.48s-116.53 51.15-119.47 51.31C715.33 474.7 715 474.7 714.74 474.7zM772.7 361c-24.36 24.36-34.73 57.8-39 78.82 21-4.32 54.46-14.68 78.82-39.05s34.83-57.87 39.09-78.83c-21 4.31-54.49 14.67-78.87 39.06zM714.74 641.29c-.29 0-.59 0-.88 0-3-.16-72.7-4.52-119.48-51.3s-51.14-116.54-51.31-119.48a16 16 0 0116.86-16.86c3 .16 72.7 4.52 119.48 51.31h0c46.78 46.78 51.14 116.53 51.31 119.48a16 16 0 01-16 16.88zM578 488.51c4.32 21 14.69 54.46 39 78.82s57.8 34.73 78.82 39c-4.32-21-14.69-54.46-39.05-78.82h0C632.42 503.19 599 492.83 578 488.51z"></path>
  <path d="M714.74 641.29a16 16 0 01-16-16.88c.16-2.95 4.52-72.7 51.3-119.48h0c46.78-46.79 116.54-51.15 119.48-51.31a16 16 0 0116.86 16.86c-.16 2.94-4.52 72.7-51.31 119.48s-116.53 51.14-119.47 51.3C715.33 641.28 715 641.29 714.74 641.29zM851.57 488.5c-21 4.3-54.49 14.67-78.87 39h0c-24.5 24.51-34.83 57.88-39.1 78.83 21-4.3 54.49-14.67 78.88-39S847.31 509.45 851.57 488.5zm-90.18 27.74h0zM714.74 807.87c-.29 0-.59 0-.88 0-3-.16-72.7-4.53-119.48-51.31S543.24 640 543.07 637.06a16 16 0 0116.86-16.86c3 .17 72.7 4.53 119.48 51.31h0C726.19 718.29 730.55 788 730.72 791a16 16 0 01-16 16.88zM578 655.1c4.32 21 14.69 54.45 39 78.81s57.8 34.73 78.82 39.05c-4.32-21-14.69-54.46-39.05-78.82h0C632.42 669.78 599 659.41 578 655.1z"></path>
  <path d="M714.74,807.87a16,16,0,0,1-16-16.88c.16-3,4.52-72.7,51.3-119.48h0c46.78-46.78,116.54-51.14,119.48-51.31a16,16,0,0,1,16.86,16.86c-.16,3-4.52,72.7-51.31,119.48s-116.53,51.15-119.47,51.31C715.33,807.87,715,807.87,714.74,807.87ZM851.57,655.08c-21,4.31-54.49,14.67-78.87,39.06h0C748.2,718.64,737.87,752,733.6,773c21-4.31,54.49-14.67,78.88-39.06S847.31,676,851.57,655.08Zm-90.18,27.74h0Z"></path>
  <path d="M714.74,916a16,16,0,0,1-16-16V320.18a16,16,0,0,1,32,0V900A16,16,0,0,1,714.74,916Z"></path>
</svg>
