<svg xmlns="http://www.w3.org/2000/svg" viewBox="0 0 512 512" id="sheep" fill="currentColor">
  <path d="M413.8 203c7.6-7.6 9.7-18.4 5.6-28.3s-13.3-16.1-24-16.1h-12.3c.4-3 .5-6 .4-9.1-.6-13.8-6.3-26.8-16-36.7S344.8 97 331.1 96.1c-3.3-.2-6.6-.1-9.9.3-4.4.5-9-1.6-11.8-5.4-12.5-16.9-32.5-27-53.4-27s-40.9 10.1-53.4 26.9c-2.9 3.9-7.4 5.9-11.8 5.4-3.3-.4-6.6-.5-9.9-.3-13.8.8-26.7 6.7-36.4 16.7s-15.4 23-16 36.7c-.1 3.1 0 6.1.4 9.1h-12.3c-10.7 0-19.9 6.2-24 16.1s-1.9 20.8 5.6 28.3c4 4 8.5 7.3 13.4 9.8a55.995 55.995 0 0 0-16.4 39.6c0 17.4 7.9 33.5 21.6 44.1 4.1 3.2 5.7 8.6 4 13.5-2.5 7-3.7 14.3-3.7 21.8 0 35.9 29.2 65.2 65.2 65.2h.2c5.1 0 9.7 3.1 11.4 7.7 9.6 25.9 34.6 43.3 62.3 43.3s52.7-17.4 62.3-43.3c1.7-4.6 6.3-7.7 11.4-7.7h.2c35.9 0 65.2-29.2 65.2-65.2 0-7.5-1.3-14.8-3.7-21.8-1.7-4.9-.1-10.3 4-13.5 13.7-10.7 21.6-26.8 21.6-44.1 0-14.9-6-29.2-16.4-39.6 4.5-2.4 9-5.7 13-9.7zM395.4 169.8c7.3 0 11.8 4.7 13.6 9.1 1.8 4.4 1.9 10.9-3.2 16.1-11.7 11.7-29 15.7-44.6 10.5-.8-2.4-1.7-4.8-2.6-7.1 3.4-2.3 6.5-4.9 9.4-7.9 5.8-6 10-13.1 12.6-20.7h14.8zM163.4 203.7c6.6 2.6 13.6 4 20.9 4 13.1 0 25.8-4.6 35.8-13 3.5-2.9 8.4-3.7 12.8-2.1 7.4 2.8 15.2 4.2 23.2 4.2s15.8-1.4 23.2-4.2c4.4-1.6 9.3-.8 12.8 2.1 10 8.4 22.7 13 35.8 13 7.3 0 14.4-1.4 20.9-4 4.5 11.4 6.8 23.4 6.8 35.8 0 27.8-11.7 54.5-32.2 73.2-4.6 4.2-8.1 9.3-10.6 15.2-11.7 28.1-30.7 42.4-56.6 42.4-25.9 0-44.9-14.3-56.6-42.4-2.5-5.9-6-11.1-10.6-15.2-20.5-18.8-32.2-45.5-32.2-73.2-.2-12.4 2.1-24.4 6.6-35.8zM139.7 149.9c.9-22.6 19.3-41.3 41.9-42.6 2.6-.2 5.3-.1 7.9.2 8.4 1 16.9-2.8 22.2-9.9 10.5-14.2 26.7-22.4 44.3-22.4s33.8 8.2 44.3 22.4c5.2 7.1 13.7 10.9 22.2 9.9 2.6-.3 5.3-.4 7.9-.2 22.5 1.4 40.9 20.1 41.9 42.6.5 12.3-3.9 24-12.4 32.8-8.5 8.9-19.9 13.7-32.2 13.7-10.4 0-20.6-3.7-28.6-10.3-4.4-3.6-9.8-5.5-15.4-5.5-2.9 0-5.7.5-8.5 1.5-6.1 2.3-12.6 3.4-19.2 3.4s-13.1-1.2-19.2-3.4c-8.1-3-17.3-1.5-23.9 4-8 6.7-18.1 10.3-28.6 10.3-12.3 0-23.7-4.9-32.2-13.7-8.5-8.8-12.9-20.5-12.4-32.8zM102.9 178.9c1.8-4.4 6.4-9.1 13.6-9.1h14.8c2.6 7.6 6.8 14.7 12.6 20.7 2.9 3 6 5.6 9.4 7.9-1 2.3-1.8 4.7-2.6 7.1-15.6 5.2-32.9 1.2-44.6-10.5-5.1-5.1-5-11.7-3.2-16.1zM405.6 252.4c0 13.9-6.3 26.7-17.3 35.2-7.9 6.2-11 16.7-7.6 26.1 2.1 5.8 3.1 11.8 3.1 18 0 29.7-24.2 53.9-53.9 53.9h-.2c-9.8 0-18.6 6-22 15.1-8 21.5-28.8 36-51.7 36s-43.8-14.5-51.7-36c-3.3-9-12.2-15.1-22-15.1h-.2c-29.7 0-53.9-24.2-53.9-53.9 0-6.2 1-12.2 3.1-18 3.4-9.4.3-19.9-7.6-26.1-11-8.5-17.3-21.4-17.3-35.2 0-13.7 6.3-26.6 17-35 4.4 1.1 9 1.7 13.6 1.7 3.5 0 7-.3 10.5-1-1.4 7-2.1 14.2-2.1 21.5 0 30.9 13.1 60.6 35.9 81.5 3.4 3.1 6 6.9 7.8 11.3 13.4 32.3 36.5 49.3 67 49.3 30.4 0 53.6-17.1 67-49.3 1.8-4.4 4.4-8.2 7.8-11.3 22.8-20.9 35.9-50.6 35.9-81.5 0-7.3-.7-14.5-2.1-21.5 3.5.7 7 1 10.5 1 4.6 0 9.1-.6 13.6-1.7 10.5 8.4 16.8 21.3 16.8 35z"/>
  <path d="M325.9 258.7c3.1 0 5.6-2.5 5.6-5.6v-22.5c0-3.1-2.5-5.6-5.6-5.6s-5.6 2.5-5.6 5.6v22.5c-.1 3.1 2.5 5.6 5.6 5.6zM191.8 253.1v-22.5c0-3.1-2.5-5.6-5.6-5.6s-5.6 2.5-5.6 5.6v22.5c0 3.1 2.5 5.6 5.6 5.6s5.6-2.5 5.6-5.6zm57.5 85.6c-1.8 3.8-5.6 6.5-10.1 6.5-3.1 0-5.6 2.5-5.6 5.6s2.5 5.6 5.6 5.6c6.7 0 12.7-2.9 16.8-7.6 4.1 4.6 10.1 7.6 16.8 7.6 3.1 0 5.6-2.5 5.6-5.6s-2.5-5.6-5.6-5.6c-4.5 0-8.3-2.6-10.1-6.5 9-2.5 17-9.6 19.1-17.7 1.8-7.1-1.4-13.7-8.5-17.4-4.9-2.6-13.7-2.9-17.2-2.9s-12.3.3-17.2 2.9c-7.1 3.8-10.3 10.3-8.5 17.4 1.9 8.1 9.9 15.2 18.9 17.7zm-5.2-25.2c1.1-.6 5.4-1.6 11.9-1.6s10.8 1 11.9 1.6c3.6 1.9 3.1 3.8 2.9 4.8-1.1 4.6-8 10.1-14.8 10.1s-13.7-5.5-14.8-10.1c-.3-1-.7-2.9 2.9-4.8z"/>
</svg>