<svg xmlns="http://www.w3.org/2000/svg" viewBox="0 0 128 128" id="beans" fill="currentColor">
  <path d="M103.5 52.9c-1.5-1-3.1-1.8-5.1-2.6l-.3-.1-.6-.3h-.2L94 48.4c-.2-.1-.5-.2-.9-.4-.3-.1-.7-.3-1-.5-.4-.2-.7-.4-1.1-.7-.2-.1-.5-.3-.8-.5-.2-.1-.4-.3-.6-.4-.7-.5-1.4-1.1-2-1.7-.3-.3-.5-.6-.8-.9-.3-.4-.6-.8-.9-1.3-.2-.3-.3-.5-.5-.9s-.4-.8-.6-1.3c-.6-1.3-1.2-2.7-1.7-4 0-.1-.1-.3-.2-.4-.2-.4-.3-.7-.5-1.1l-.9-2.1C77.9 24.8 71.4 20 63.8 19c-7.7-1-15.4 2-20.2 7.7-1.6 1.9-2.9 4.2-3.9 6.6-7.6-.9-15.2 2.1-19.9 7.7-3.4 4-5.4 9.3-5.7 15.2-.1 2.4.1 4.8.5 7.1 1.2 6.7 4.4 13.3 9.8 20.2 6 7.8 13.4 14.2 21.8 19.3 5.2 3.1 9.7 4.9 14.1 5.9 2.2.5 4.4.7 6.5.7 3.3 0 6.4-.6 9.2-1.7 5.6-2.3 10.2-6.9 12.6-12.7.7 0 1.4.1 2.1.1 3.3 0 6.4-.6 9.2-1.7 7.7-3.1 13.4-10.7 14.2-19.1.5-8.4-3.7-16.9-10.6-21.4zM61.2 103.9c-3.9-.8-7.9-2.5-12.7-5.3-7.9-4.7-14.8-10.8-20.5-18.1-4.9-6.3-7.8-12.2-8.9-18.1-.4-2-.5-4-.4-6 .3-4.8 1.9-9.1 4.6-12.3 3.3-3.9 8.5-6.2 13.7-6.2.7 0 1.5 0 2.2.1.5.1 1 .1 1.4.2 5.5 1.2 10 4.9 12.7 10.5.1.3.3.6.4.9-.1.1-.3.2-.4.3-.1.1-.2.1-.3.2-.3.2-.5.4-.7.6l-.2.2-.5.5-.3.3-.4.4-.3.3c-.1.1-.2.3-.3.4l-.3.3c-.1.1-.2.3-.3.5-.1.1-.2.2-.2.3-.1.2-.2.3-.3.5-.1.1-.1.2-.2.3-.2.3-.3.6-.4.8 0 .1 0 .1-.1.2-.1.2-.2.5-.3.7 0 .1-.1.2-.1.3-.1.2-.1.4-.2.6 0 .1-.1.2-.1.4-.1.2-.1.4-.2.6 0 .1-.1.3-.1.4 0 .2-.1.4-.1.6 0 .1 0 .2-.1.4 0 .2-.1.4-.1.7v1.3c0 7.9 6.4 14.3 14.3 14.3h1.3c.2 0 .4 0 .7-.1.1 0 .2 0 .4-.1.2 0 .4-.1.6-.1.1 0 .2-.1.4-.1s.4-.1.6-.2c.1 0 .2-.1.4-.1.2-.1.4-.1.6-.2.1 0 .2-.1.3-.1.6-.2 1.2-.5 1.8-.8.1 0 .2-.1.2-.1.2-.1.4-.2.6-.4.1-.1.2-.1.3-.2.2-.1.3-.2.5-.4.1-.1.2-.1.3-.2.2-.1.3-.3.5-.4.1-.1.2-.1.2-.2l.5-.5.2-.2c.5-.5.9-1 1.3-1.5 0-.1.1-.1.1-.2.1-.2.2-.3.3-.5.1 0 .1.1.2.1s.2.1.3.1c.3.1.5.3.8.4.1.1.2.1.3.2.2.1.5.3.7.4.1.1.2.1.3.2.3.2.6.4.9.5 1.4.9 2.6 2 3.7 3.2 3 3.4 4.7 7.9 4.6 12.4 0 .4 0 .8-.1 1.2 0 .5-.1 1.1-.2 1.7 0 .2-.1.4-.1.6-.1.4-.2.7-.3 1.1 0 .1 0 .1-.1.2-1.6 5.2-5.6 9.6-10.5 11.5-3.7 1.4-8.3 1.7-12.9.7zM56.1 54.8c.1.3.3.6.4.9.1.2.2.5.3.7.1.3.3.6.4.8.1.2.2.4.3.7.2.4.4.8.7 1.2 0 .1.1.2.1.2s0 .1.1.1c.3.4.5.8.7 1 .3.5.8 1 1.2 1.4.8.8 1.6 1.5 2.7 2.3l.7.4c.5.3 1.1.7 1.6 1 .2.1.3.2.5.3l1.2.6c.2.1.3.2.5.2.5.3 1.1.5 1.6.7a9.67 9.67 0 0 1-7.6 3.7c-5.3 0-9.5-4.3-9.5-9.5 0-3 1.4-5.7 3.7-7.5v.1c.2.3.3.5.4.7zm34 33.7c.7-8.3-3.5-16.8-10.5-21.3-1.5-1-3.1-1.8-5.1-2.6l-.3-.1-.8-.4-.4-.3c-2.4-1-4.6-1.9-6.6-3.2l-.5-.4c-.8-.6-1.4-1.1-2-1.7-.3-.3-.5-.6-.8-1l-.6-.9c-1.1-1.7-2-3.7-2.8-5.8l-.5-1.1c-.2-.4-.3-.7-.5-1.1l-.9-2.1c-2.9-5.9-7.7-10.3-13.4-12.3.7-1.7 1.7-3.2 2.8-4.6 3.7-4.4 10-6.8 16-6 6 .8 11.2 4.7 14.1 10.7.1.3.3.6.4.9-.1.1-.3.2-.4.3-.1.1-.2.1-.3.2-.3.2-.5.4-.7.6l-.2.2-.5.5-.3.3-.4.4-.3.3c-.1.1-.2.3-.3.4l-.3.3c-.1.1-.2.3-.3.5-.1.1-.2.2-.2.3-.1.2-.2.3-.3.5-.1.1-.1.2-.2.3-.2.3-.3.6-.4.8 0 .1 0 .1-.1.2-.1.2-.2.5-.3.7 0 .1-.1.2-.1.3-.1.2-.1.4-.2.6 0 .1-.1.2-.1.4-.1.2-.1.4-.2.6 0 .1-.1.3-.1.4 0 .2-.1.4-.1.6 0 .1 0 .2-.1.4 0 .2-.1.4-.1.7v1.3c0 7.9 6.4 14.3 14.3 14.3h1.3c.2 0 .4 0 .7-.1.1 0 .2 0 .4-.1.2 0 .4-.1.6-.1.1 0 .2-.1.4-.1s.4-.1.6-.2c.1 0 .2-.1.3-.1.2-.1.4-.1.6-.2.1 0 .2-.1.3-.1.6-.2 1.2-.5 1.8-.8.1 0 .2-.1.2-.1.2-.1.4-.2.6-.4.1-.1.2-.1.3-.2.2-.1.3-.2.5-.4.1-.1.2-.1.3-.2.2-.1.3-.3.5-.4.1-.1.2-.1.2-.2l.5-.5.2-.2c.5-.5.9-1 1.3-1.5 0-.1.1-.1.1-.2.1-.2.2-.3.3-.5 1.3.6 2.4 1.2 3.4 1.8 5.5 3.6 8.9 10.3 8.3 16.9-.6 6.6-5.1 12.6-11.2 15.1-2.4 1-5.2 1.4-8.1 1.3.1-.5.2-1.1.2-1.6zM87.6 50.3c.3.2.7.5 1 .6.4.3.9.5 1.4.8.4.2.9.4 1.1.5.3.2.7.3 1 .5l.9.4a9.67 9.67 0 0 1-7.6 3.7c-5.3 0-9.5-4.3-9.5-9.5 0-3 1.4-5.7 3.7-7.5.3.7.6 1.4 1 2.1.2.5.5 1.1.8 1.5.2.4.4.7.6 1 .4.6.8 1.2 1.2 1.7.4.5.7 1 1.1 1.3.8.8 1.7 1.6 2.7 2.3.1.3.4.5.6.6z"/>
</svg>