<svg xmlns="http://www.w3.org/2000/svg" viewBox="0 0 64 64" id="pig" fill="currentColor" stroke="none">
  <g>
    <path d="M60.81,34.61a26.51,26.51,0,0,0-6.44-15.79,20.9,20.9,0,0,0,5.46-13L60,1.68a1.16,1.16,0,0,0-.28-.79L59.42.55l-2-.1a20.88,20.88,0,0,0-18.32,9,31.86,31.86,0,0,0-18.95,1,20.93,20.93,0,0,0-11-8.8L5.28.32a1,1,0,0,0-.83,0L4,.6,3.36,2.51A21,21,0,0,0,6,21.38,26.47,26.47,0,0,0,1.24,38.16c.88,14.76,13.94,26.15,29.53,26.15.63,0,1.27,0,1.91-.06C49.11,63.28,61.73,50,60.81,34.61ZM57.3,2.45l.69,0-.16,3.19A18.87,18.87,0,0,1,53,17.34c-.31-.31-.64-.63-1-.93A12.83,12.83,0,0,0,54,9.85l0-2.44,0-1-2,0a12.8,12.8,0,0,0-9.63,4.13c-.41-.16-.83-.3-1.24-.44A18.84,18.84,0,0,1,57.3,2.45ZM52,9.82a10.9,10.9,0,0,1-1.46,5.27,29.89,29.89,0,0,0-6.16-3.8,10.78,10.78,0,0,1,7.63-3h0ZM5.25,3.17l.23-.67,3,1a19,19,0,0,1,9.76,7.68c-.48.21-1,.44-1.43.68a12.87,12.87,0,0,0-5.72-4l-2.3-.79-1-.29L7.16,8.7a12.79,12.79,0,0,0,.78,10.17c-.24.27-.46.54-.68.82A19,19,0,0,1,5.25,3.17ZM9.39,17.32a10.84,10.84,0,0,1-.34-8h0l1.41.49a10.68,10.68,0,0,1,4.59,3.07A30.12,30.12,0,0,0,9.39,17.32ZM32.56,62.26C17.24,63.16,4.08,52.31,3.23,38a24.91,24.91,0,0,1,7-18.76,28.73,28.73,0,0,1,19.22-8.77c.61,0,1.22,0,1.82,0a28.59,28.59,0,0,1,18.31,6.48,24.86,24.86,0,0,1,9.21,17.79C59.67,49,47.89,61.35,32.56,62.26Z"/>
    <path d="M22.07 30.39a1.22 1.22 0 1 0-1.28-1.16A1.22 1.22 0 0 0 22.07 30.39zM37.67 30.39a1.22 1.22 0 1 0-1.27-1.16A1.21 1.21 0 0 0 37.67 30.39zM30.55 33c-9.76 0-17.69 5.13-17.69 11.44s7.93 11.44 17.69 11.44 17.68-5.13 17.68-11.44S40.3 33 30.55 33zm0 20.88c-8.65 0-15.69-4.23-15.69-9.44S21.9 35 30.55 35s15.68 4.24 15.68 9.44S39.2 53.86 30.55 53.86z"/>
    <path d="M27.71 45.28a1 1 0 0 0-1.15.82c-.28 1.72-1 2.63-1.42 2.63s-1.53-1.51-1.53-4 1-4 1.53-4c.2 0 .56.24.9.92a1 1 0 0 0 1.78-.9 3.13 3.13 0 0 0-2.68-2c-2 0-3.53 2.58-3.53 6s1.52 6 3.53 6c1.64 0 3-1.69 3.4-4.3A1 1 0 0 0 27.71 45.28zM37.91 44.74a1 1 0 0 0-1.1.89c-.21 2.07-1.06 3.1-1.48 3.1s-1.53-1.51-1.53-4 1-4 1.53-4c.25 0 .67.37 1 1.19a1 1 0 0 0 1.84-.78c-.65-1.53-1.69-2.41-2.86-2.41-2 0-3.53 2.58-3.53 6s1.51 6 3.53 6c1.78 0 3.17-2 3.47-4.89A1 1 0 0 0 37.91 44.74z"/>
  </g>
</svg>