<svg xmlns="http://www.w3.org/2000/svg" viewBox="0 0 64 64" id="water-bottle" fill="currentColor" stroke="none">
  <path d="M45.1 47.5v-.3c-.2-1.9-.4-3.7-.8-5.5-1.3-5.8 0-11.2.9-13.9.6-1.9.9-3.7.8-5.5-.2-6.9-4.4-9.8-6.9-10.9-.9-.4-1.5-1.3-1.5-2.2v-1h.1c.8 0 1.4-.6 1.4-1.4V1.4c0-.8-.6-1.4-1.4-1.4H26.3c-.8 0-1.4.6-1.4 1.4v5.4c0 .8.6 1.4 1.4 1.4h.1v1c0 .9-.6 1.8-1.5 2.2-2.5 1.1-6.6 3.9-6.9 10.9-.1 1.7.2 3.6.8 5.5.9 2.7 2.2 8.2.9 13.9-.4 1.8-.6 3.7-.8 5.7v.1c-.1 1.2-.1 2.5-.1 3.8v8c0 2.6 2.1 4.7 4.7 4.7h17.1c2.6 0 4.7-2.1 4.7-4.7v-8c-.1-1.2-.1-2.5-.2-3.8 0 .1 0 .1 0 0zM21.6 27c-.2-.6-.3-1.2-.5-1.8h21.8c-.1.6-.3 1.2-.5 1.8-1 3-2.4 9-1 15.4.3 1.2.4 2.4.6 3.7H21.9c.1-1.3.3-2.5.6-3.7 1.4-6.4 0-12.4-.9-15.4zm6.1-24.1h8.5v2.5h-8.5V2.9zm-1.6 11.2c2-.9 3.2-2.8 3.2-4.8v-1h5.4v1c0 2.1 1.3 4 3.2 4.8 2.2 1 4.9 3.2 5.2 8.1H20.9c.2-4.9 2.9-7.1 5.2-8.1zm16.3 45.2c0 1-.8 1.8-1.8 1.8H23.4c-1 0-1.8-.8-1.8-1.8v-8c0-.8 0-1.6.1-2.4h20.6c0 .8.1 1.6.1 2.4v8z"/>
  <path d="M32 42.9c3.3 0 6-2.7 6-6 0-2.9-4.1-7.3-4.9-8.1-.3-.3-.6-.4-1-.4s-.8.2-1 .4c-.8.8-4.9 5.2-4.9 8.1-.1 3.3 2.5 6 5.8 6zm0-11c1.6 1.9 3.1 4 3.1 5 0 1.7-1.4 3.1-3.1 3.1-1.7 0-3.1-1.4-3.1-3.1 0-1 1.5-3.1 3.1-5z"/>
</svg>