<svg xmlns="http://www.w3.org/2000/svg" viewBox="0 0 64 64" id="octopus" fill="currentColor" stroke="currentColor">
  <path d="M57.204 38.492c-1.826-3.932-6.157-6.673-14.479-9.165a4.195 4.195 0 0 1-.88-.366c2.067-3.598 3.378-7.972 3.378-11.368 0-6.653-5.245-11.124-13.053-11.124S19.116 10.94 19.116 17.593c0 3.402 1.325 7.815 3.407 11.43-.296.259-.709.468-1.248.631-8.322 2.491-12.653 5.231-14.48 9.165-1.79 3.861-.573 9.135-.152 10.674a2.794 2.794 0 0 0 2.668 2.013c.27 0 .531-.039.752-.108a2.776 2.776 0 0 0 1.92-3.416c-.408-1.457-.983-5.041-.155-6.824 1.062-2.285 4.571-4.253 11.047-6.193.224-.067.441-.142.653-.221a8.907 8.907 0 0 1-1.879 1.416c-5.938 3.381-7.851 9.16-8.396 11.483-.428 1.786-.731 4.225.255 5.703a2.766 2.766 0 0 0 2.306 1.229c.564 0 1.1-.164 1.532-.465a2.79 2.79 0 0 0 1.045-3.319c-.02-1.007.836-6.876 6.001-9.811.349-.199.688-.41 1.015-.632-.11.144-.225.283-.343.418-4.887 5.604-2.861 12.547-1.106 15.438a2.796 2.796 0 0 0 2.371 1.328c.505 0 1.004-.141 1.437-.404a2.742 2.742 0 0 0 1.257-1.713 2.767 2.767 0 0 0-.318-2.09c-.12-.201-2.891-4.98.54-8.918 1.178-1.347 2.122-2.929 2.822-4.725.687 1.664 1.587 3.139 2.69 4.405 3.465 3.974.575 8.855.543 8.909a2.789 2.789 0 0 0 .949 3.818c1.295.756 3.04.302 3.796-.94 1.753-2.886 3.778-9.825-1.107-15.434a10.015 10.015 0 0 1-.342-.418c.327.222.666.434 1.015.632 5.163 2.933 6.019 8.803 6 9.811-.469 1.199-.041 2.596 1.029 3.308.45.313.985.478 1.548.478.928 0 1.79-.461 2.308-1.233.982-1.475.681-3.914.255-5.698-.548-2.328-2.463-8.108-8.398-11.486a9.005 9.005 0 0 1-1.872-1.411c.211.078.428.151.649.219 6.473 1.937 9.981 3.903 11.044 6.189.829 1.785.253 5.369-.155 6.827-.411 1.474.451 3.006 1.902 3.41 1.436.431 3.02-.46 3.442-1.914.414-1.523 1.633-6.791-.159-10.662zm-1.767 10.117a.787.787 0 0 1-.748.57.755.755 0 0 1-.214-.034.772.772 0 0 1-.532-.95c.015-.052 1.436-5.21.044-8.208-1.34-2.883-5.128-5.122-12.282-7.263-1.065-.322-1.948-.802-2.624-1.425a.947.947 0 0 0-.72-.264.998.998 0 0 0-.695.323 15.27 15.27 0 0 1-.466.486.999.999 0 0 0-.186 1.157 10.727 10.727 0 0 0 4.348 4.567c5.251 2.988 6.953 8.134 7.441 10.21.452 1.893.463 3.475.028 4.125a.77.77 0 0 1-1.068.214.768.768 0 0 1-.269-.977c.043-.091.072-.188.087-.286.229-1.559-.936-8.506-6.982-11.94a12.29 12.29 0 0 1-4.266-3.995 1.001 1.001 0 0 0-1.814.766c.549 2.438 1.527 4.48 2.909 6.067 4.126 4.736 2.396 10.628.906 13.08-.21.349-.721.463-1.064.262a.781.781 0 0 1-.262-1.063c.037-.062 3.686-6.18-.745-11.261-1.548-1.775-2.643-4.043-3.253-6.739a1.001 1.001 0 0 0-.976-.779h-.008a1 1 0 0 0-.971.795c-.593 2.831-1.709 5.2-3.32 7.042-4.406 5.058-.785 11.202-.748 11.263a.784.784 0 0 1 .09.589.762.762 0 0 1-.35.474.788.788 0 0 1-1.063-.253c-1.491-2.456-3.221-8.351.906-13.084 1.382-1.586 2.36-3.628 2.909-6.066a1.002 1.002 0 0 0-.976-1.22.999.999 0 0 0-.838.455c-1.073 1.649-2.508 2.992-4.265 3.993-6.049 3.437-7.213 10.383-6.983 11.94.015.099.044.195.087.285a.774.774 0 0 1-.285.989c-.3.208-.822.119-1.05-.222-.437-.654-.426-2.235.028-4.131.486-2.072 2.186-7.216 7.439-10.207 2.058-1.169 3.601-2.868 4.587-5.052a.999.999 0 0 0-.204-1.119 9.417 9.417 0 0 1-.337-.355.998.998 0 0 0-.731-.335 1.065 1.065 0 0 0-.741.313c-.719.76-1.699 1.332-2.914 1.699-7.254 2.174-10.927 4.347-12.284 7.266-1.392 2.996.029 8.154.044 8.205a.78.78 0 0 1-.561.96c-.339.106-.817-.146-.929-.527-.264-.968-1.502-5.962.042-9.291 1.562-3.36 5.521-5.78 13.243-8.092 1.294-.393 2.219-1.051 2.749-1.955a1 1 0 0 0-.012-1.03c-2.11-3.425-3.474-7.738-3.474-10.99 0-6.734 5.954-9.124 11.054-9.124 5.099 0 11.053 2.39 11.053 9.124 0 3.287-1.382 7.627-3.521 11.056a1 1 0 0 0 .088 1.178c.543.638 1.314 1.101 2.359 1.416 7.721 2.313 11.68 4.732 13.24 8.091 1.548 3.341.309 8.327.05 9.277z"/>
  <path d="M34.863 25.583A2.994 2.994 0 0 0 32 27.736a2.994 2.994 0 0 0-2.863-2.153c-1.654 0-3 1.346-3 3s1.346 3 3 3A2.994 2.994 0 0 0 32 29.43a2.994 2.994 0 0 0 2.863 2.153c1.654 0 3-1.346 3-3s-1.345-3-3-3zm-5.726 4a1 1 0 1 1 0-2 1 1 0 0 1 0 2zm5.726 0a1 1 0 1 1 0-2 1 1 0 0 1 0 2z"/>
</svg>