<svg xmlns="http://www.w3.org/2000/svg" viewBox="0 0 512 512" id="shrimp" fill="currentColor" stroke="currentColor">
  <path d="M46 129.3c.2 5.9.7 11.9 1.3 17.8.4 4.1 3.1 7.5 7.5 7.5 3.8 0 7.9-3.4 7.5-7.5-.6-5.9-1.1-11.9-1.3-17.8C60.6 119.7 45.6 119.7 46 129.3Z"/>
  <path d="M52.4 176.6c7.1 27.9 20.4 53.6 40.8 74.1 18.6 18.8 42.8 31.8 68.3 38.6 23.9 6.3 49.9 3.9 74.4 3.9 21.2 0 42.4 0 63.6 0 13.5 0 28.2-1.7 41.2 2.3 24.2 7.3 37.4 33.9 31.1 57.8-3.4 13.1-12.8 23.6-24.6 29.8-8.6 4.5-1 17.5 7.6 13 22.3-11.8 35.7-36.1 33.4-61.3-2.5-26.6-22.2-48.7-48-55-13-3.2-27.5-1.6-40.8-1.6-11.8 0-23.6 0-35.3 0-21.4 0-42.7 0-64.1 0-5.4 0-10.8.4-16.2 0-4-.3-4.2-.4-8.4-1.1-4.5-.8-9-1.9-13.4-3.1-25.6-7.2-48.6-21.9-65.9-42.1-14.5-16.9-23.7-37.7-29.2-59.2C64.5 163.2 50 167.2 52.4 176.6Z"/>
  <path d="M71.3 112.8h282c37.5 0 76 16.8 102.9 47.5 22.7 26.3 35.5 59.6 35.8 94.3.3 35.1-9.7 70.5-27.6 101.4-23.6 41.1-65.8 68.8-114.1 76.7-9.5 1.6-5.5 16.1 4 14.5 45.4-7.8 85.6-34.7 111-73 28.6-43 34.6-98.8 17.2-147.2-24.8-69.7-90.6-115.7-162.6-115.7H71.3c-9.6 0-9.6 15 0 15Z"/>
  <path d="M181 150.4c8.1 0 8 12.1 0 12.4-8.1.5-8.1-11.9 0-12.4 9.6-.5 9.7-15.5 0-15-11.5.5-21.2 9.3-21.2 21.2s9.7 21.2 21.2 21.2 21.2-9.7 21.2-21.2-9.7-21.2-21.2-21.2c-9.7 0-9.7 15 0 15Z"/>
  <path d="M256.6 196.1c-.9 30.4-10.4 59.4-25.4 85.7h-32.4c2.2 3.8 4.3 7.5 6.5 11.3 20.6-30.5 33.6-65.8 32.5-102.9-.9-30-11.4-60.8-29.2-85h32.6c-2.2-1.2-4.3-2.5-6.5-3.7 21.9 34.2 29.6 64.1 28.9 94.6-.2 9.7 14.8 9.7 15 0 .7-33.1-7.8-65.8-24-94.7-1.3-2.3-3.9-3.7-6.5-3.7h-32.6c-5.2 0-10 6.6-6.5 11.3 16.4 22.3 25.9 49.8 27.1 77.4 1.6 34.5-11.4 67.2-30.4 95.4-3.2 4.8 1.1 11.3 6.5 11.3h32.4c2.6 0 5.2-1.4 6.5-3.7 16.3-28.6 26.4-60.3 27.5-93.3.3-9.6-14.7-9.6-15 0Z"/>
  <path d="M340.7 108.8c10.4 60-1.2 124.4-41.3 171.6h34.3c-11.2-1.3-23-.5-34.3-.5 1.8 4.3 3.5 8.5 5.3 12.8 43.9-51.6 56.6-120.5 45.2-186.2-1.7-9.5-16.2-5.5-14.6 4.1Z"/>
  <path d="M376.7 318.2c26-12.1 50-28.4 67.1-51.7 16.9-23.1 27-54 27-82.7 0-9.7-15-9.7-15 0 0 25.9-9.3 52.7-24 73.8-15.2 21.9-38.9 36.5-62.6 47.6-8.9 4.2-1.3 17.1 7.5 13.1Z"/>
  <path d="M384.8 344.7c24.5-11.1 48-25.4 66.8-44.8 17.4-18.1 30-40.3 37.7-64 3-9.2-11.5-13.1-14.5-4-7 21.4-18.4 41-33.9 57.4-17.6 18.7-40.5 32-63.7 42.5-3.7 1.7-4.6 7-2.7 10.3 1.9 3.3 6.3 3.9 10 2.2Z"/>
  <path d="M344.8 395.6v27.4c-2.5-2.5-5-5-7.5-7.5 0 0 .1 0 .3 0 4.4 0 7 3.4 7.5 7.5-2 17.3-12.6 32.3-27.6 40.9-10.4 6-21.6 6.8-33.2 6.8h-59.9c2.5 2.5 5 5 7.5 7.5v-21c0-16.9 7.9-32.1 20.8-42.7 2.9-2.4 2.9-8.2 0-10.6-12.5-10.4-20.2-24.8-20.8-41.1v-22.6c-2.5 2.5-5 5-7.5 7.5h59.9c11.2 0 21.8.9 32 6.2 15.6 8.1 26.7 24.1 28.7 41.6.5 4.1 3.1 7.5 7.5 7.5.1 0 .2 0 .3 0 9.7 0 9.7-15 0-15-.1 0-.2 0-.3 0 2.5 2.5 5 5 7.5 7.5-2.4-20.6-12.6-38.1-29.4-50.3-12.6-9.2-27.8-12.5-43-12.5h-63.3c-4.1 0-7.5 3.4-7.5 7.5v25.8c1.2 18.8 10.5 36.6 25 48.5v-10.6c-14.4 11.9-22.7 28.6-24.9 47v27.4c0 4.1 3.4 7.5 7.5 7.5h63.3c15 0 29.3-3.3 41.9-11.7 17.5-11.6 28.1-30.4 30.5-51.1-2.5 2.5-5 5-7.5 7.5 0 0 .1 0 .3 0 4.1 0 7.5-3.4 7.5-7.5v-27.4c0-9.7-15-9.7-15 0Z"/>
  <path d="M352.3 403.1c9.7 0 9.7-15 0-15-9.6 0-9.6 15 0 15Z"/>
  <path d="M269.7 45.5H60.3c-16.7 0-31.7 10.6-34.8 27.5-2.1 11.5 2 23.4 10.7 31.2 7.6 6.9 17 8.5 26.9 8.5h8.3c9.7 0 9.7-15 0-15-6.2 0-12.9.8-18.9-1-9.1-2.9-13.8-13.4-11.7-22.5 2-8.2 9.8-13.9 18.1-13.9h213.6c9.6 0 9.6-15 0-15Z"/>
  <path d="M66.9 172.6c-1.6-9.1-3.2-18.3-4.9-27.4-1.7-9.5-16.1-5.5-14.5 4 1.6 9.1 3.2 18.3 4.9 27.4 1.6 9.5 16 5.5 14.5-4Z"/>
  <path d="M61 131.1c-1.2-9.1-2.3-18.1-3.5-27.2-.5-4.1-3-7.5-7.5-7.5-3.7 0-8 3.4-7.5 7.5 1.2 9.1 2.3 18.1 3.5 27.2.5 4.1 3 7.5 7.5 7.5 3.7 0 8-3.4 7.5-7.5Z"/>
</svg>