<svg xmlns="http://www.w3.org/2000/svg" viewBox="0 0 35 35" id="chilli" fill="currentColor">
  <path d="M4.4726,19.0917c2.8369,4.3057,7.3213,8.4395,11.9961,11.0566c4.59,2.5737,11.2162,0.6158,15.4883-2.7207
    c0.7002-0.5479,0.9238-1.5254,0.5283-2.3252c-0.3945-0.7959-1.3047-1.2031-2.168-0.9863
    c-2.4395,0.6377-5.2197-0.1055-7.0771-1.8936c-2.0586-1.9824-2.6924-4.1924-3.4951-6.9902
    c-1.0485-3.6685-1.905-6.6751-5.3447-8.3545c-2.7225-1.329-6.5677,0.0665-7.9658,1.5957L5.6953,9.2772
    c-0.4555-1.0818-1.375-3.4387-1.375-4.6074c0-0.5527-0.4473-1-1-1s-1,0.4473-1,1c0,2.0041,1.4736,5.1003,1.9297,6.4229
    C2.7841,13.6805,2.8593,16.6434,4.4726,19.0917zM6.1425,11.8221c0.0371-0.0596,0.0693-0.1191,0.0938-0.1787l1.6221-1.7637
    c1.8047-1.4609,4.123-1.9561,5.665-1.2051c2.7765,1.3551,3.4336,4.0858,4.2998,7.1084c0.8145,2.8408,1.584,5.5244,4.0303,7.8809
    c2.2168,2.1348,5.4805,3.0918,8.4502,2.5059c-3.6025,2.6362-9.1987,4.2832-12.8584,2.2344
    c-4.4072-2.4697-8.6328-6.3623-11.3027-10.4121C4.9023,16.1092,4.9033,13.8026,6.1425,11.8221z"/>
  <path d="M17.7861,27.8905c1.312,0.7149,4.5723,1.5459,4.5723-0.1768c0-1.5388-1.7383-0.5555-3.6162-1.5801
    c-2.6045-1.416-6.2539-5.0654-10.0137-10.0107c-0.333-0.4404-0.96-0.5254-1.4014-0.1904c-0.4395,0.334-0.5244,0.9609-0.1904,1.4014
    C11.0605,22.496,14.9423,26.3446,17.7861,27.8905z"/>
</svg>