<svg xmlns="http://www.w3.org/2000/svg" viewBox="0 0 48 48" fill="currentColor" id="vegetable">
  <path fill="currentColor" d="M47.31 4.79C46.43 4.51 25.69-2 12.44 6.91-2.77 17.15 2.38 33.74 4.82 39.52 2.89 41.48.33 44 .3 44a1 1 0 0 0 .7 1.74c.5 0 .39.12 5.24-4.81 9.83 4 21.51 3.47 29.47-4.48C47 25.21 39.07 19.92 47.84 6.28a1 1 0 0 0-.53-1.49ZM34.29 35c-9.52 9.52-22.48 5.83-26.57 4.32 1.51-1.62 2.92-3.28 4.31-5l13.91 2.48a1 1 0 0 0 .36-2l-12.85-2.3c2-2.55 3.2-4.08 4.77-6 16.48 4 15.5 3.83 15.69 3.83a1 1 0 0 0 .24-2l-14.51-3.44c1.33-1.57 2.74-3.13 4.27-4.67 13.44 3.12 12.6 2.94 12.77 2.94a1 1 0 0 0 .23-2l-11.3-2.63c1.26-1.18 2.61-2.36 4.06-3.5 6.2 1 7.83 1.26 7.95 1.26a1 1 0 0 0 .16-2l-5.88-.94c.85-.61 1.72-1.21 2.64-1.81a1 1 0 0 0-1.08-1.64c-1 .62-1.87 1.25-2.76 1.88l.45-3.39a1 1 0 0 0-2-.26l-.71 5.33a62.875 62.875 0 0 0-3.81 3.26l.21-7.89a1 1 0 0 0-2-.06l-.24 9.93c-1.35 1.35-2.6 2.72-3.8 4.1l-.16-12a1 1 0 0 0-2 0l.19 14.31c-1.39 1.71-2.73 3.41-4.31 5.41L12 16.46a1 1 0 0 0-2 .08l.65 16.39c-1.39 1.72-2.8 3.38-4.29 5-8.6-22 7.42-40.07 39.12-31.58-8.02 13.32-.84 18.34-11.19 28.65Z"/>
</svg>